<svg xmlns="http://www.w3.org/2000/svg" viewBox="0 0 45 45" shape-rendering="crispEdges" width="45" height="45"><rect width="45" height="45" fill="#ffffff"/><path d="M2 2h1v1h-1zM3 2h1v1h-1zM4 2h1v1h-1zM5 2h1v1h-1zM6 2h1v1h-1zM7 2h1v1h-1zM8 2h1v1h-1zM12 2h1v1h-1zM14 2h1v1h-1zM15 2h1v1h-1zM16 2h1v1h-1zM17 2h1v1h-1zM19 2h1v1h-1zM20 2h1v1h-1zM21 2h1v1h-1zM22 2h1v1h-1zM23 2h1v1h-1zM24 2h1v1h-1zM25 2h1v1h-1zM27 2h1v1h-1zM30 2h1v1h-1zM34 2h1v1h-1zM36 2h1v1h-1zM37 2h1v1h-1zM38 2h1v1h-1zM39 2h1v1h-1zM40 2h1v1h-1zM41 2h1v1h-1zM42 2h1v1h-1zM2 3h1v1h-1zM8 3h1v1h-1zM12 3h1v1h-1zM13 3h1v1h-1zM14 3h1v1h-1zM18 3h1v1h-1zM19 3h1v1h-1zM23 3h1v1h-1zM27 3h1v1h-1zM28 3h1v1h-1zM29 3h1v1h-1zM32 3h1v1h-1zM34 3h1v1h-1zM36 3h1v1h-1zM42 3h1v1h-1zM2 4h1v1h-1zM4 4h1v1h-1zM5 4h1v1h-1zM6 4h1v1h-1zM8 4h1v1h-1zM10 4h1v1h-1zM11 4h1v1h-1zM13 4h1v1h-1zM14 4h1v1h-1zM15 4h1v1h-1zM18 4h1v1h-1zM19 4h1v1h-1zM20 4h1v1h-1zM21 4h1v1h-1zM23 4h1v1h-1zM24 4h1v1h-1zM27 4h1v1h-1zM30 4h1v1h-1zM33 4h1v1h-1zM34 4h1v1h-1zM36 4h1v1h-1zM38 4h1v1h-1zM39 4h1v1h-1zM40 4h1v1h-1zM42 4h1v1h-1zM2 5h1v1h-1zM4 5h1v1h-1zM5 5h1v1h-1zM6 5h1v1h-1zM8 5h1v1h-1zM10 5h1v1h-1zM11 5h1v1h-1zM14 5h1v1h-1zM15 5h1v1h-1zM16 5h1v1h-1zM17 5h1v1h-1zM22 5h1v1h-1zM23 5h1v1h-1zM28 5h1v1h-1zM29 5h1v1h-1zM32 5h1v1h-1zM33 5h1v1h-1zM36 5h1v1h-1zM38 5h1v1h-1zM39 5h1v1h-1zM40 5h1v1h-1zM42 5h1v1h-1zM2 6h1v1h-1zM4 6h1v1h-1zM5 6h1v1h-1zM6 6h1v1h-1zM8 6h1v1h-1zM10 6h1v1h-1zM13 6h1v1h-1zM14 6h1v1h-1zM19 6h1v1h-1zM20 6h1v1h-1zM22 6h1v1h-1zM24 6h1v1h-1zM27 6h1v1h-1zM29 6h1v1h-1zM30 6h1v1h-1zM34 6h1v1h-1zM36 6h1v1h-1zM38 6h1v1h-1zM39 6h1v1h-1zM40 6h1v1h-1zM42 6h1v1h-1zM2 7h1v1h-1zM8 7h1v1h-1zM10 7h1v1h-1zM13 7h1v1h-1zM14 7h1v1h-1zM15 7h1v1h-1zM16 7h1v1h-1zM22 7h1v1h-1zM23 7h1v1h-1zM24 7h1v1h-1zM26 7h1v1h-1zM27 7h1v1h-1zM28 7h1v1h-1zM29 7h1v1h-1zM30 7h1v1h-1zM34 7h1v1h-1zM36 7h1v1h-1zM42 7h1v1h-1zM2 8h1v1h-1zM3 8h1v1h-1zM4 8h1v1h-1zM5 8h1v1h-1zM6 8h1v1h-1zM7 8h1v1h-1zM8 8h1v1h-1zM10 8h1v1h-1zM12 8h1v1h-1zM14 8h1v1h-1zM16 8h1v1h-1zM18 8h1v1h-1zM20 8h1v1h-1zM22 8h1v1h-1zM24 8h1v1h-1zM26 8h1v1h-1zM28 8h1v1h-1zM30 8h1v1h-1zM32 8h1v1h-1zM34 8h1v1h-1zM36 8h1v1h-1zM37 8h1v1h-1zM38 8h1v1h-1zM39 8h1v1h-1zM40 8h1v1h-1zM41 8h1v1h-1zM42 8h1v1h-1zM10 9h1v1h-1zM11 9h1v1h-1zM12 9h1v1h-1zM13 9h1v1h-1zM17 9h1v1h-1zM18 9h1v1h-1zM22 9h1v1h-1zM23 9h1v1h-1zM32 9h1v1h-1zM34 9h1v1h-1zM2 10h1v1h-1zM4 10h1v1h-1zM5 10h1v1h-1zM6 10h1v1h-1zM7 10h1v1h-1zM8 10h1v1h-1zM13 10h1v1h-1zM15 10h1v1h-1zM18 10h1v1h-1zM19 10h1v1h-1zM20 10h1v1h-1zM21 10h1v1h-1zM24 10h1v1h-1zM26 10h1v1h-1zM27 10h1v1h-1zM28 10h1v1h-1zM31 10h1v1h-1zM36 10h1v1h-1zM37 10h1v1h-1zM38 10h1v1h-1zM39 10h1v1h-1zM40 10h1v1h-1zM4 11h1v1h-1zM6 11h1v1h-1zM7 11h1v1h-1zM9 11h1v1h-1zM10 11h1v1h-1zM12 11h1v1h-1zM13 11h1v1h-1zM14 11h1v1h-1zM15 11h1v1h-1zM16 11h1v1h-1zM18 11h1v1h-1zM20 11h1v1h-1zM21 11h1v1h-1zM22 11h1v1h-1zM23 11h1v1h-1zM25 11h1v1h-1zM27 11h1v1h-1zM31 11h1v1h-1zM33 11h1v1h-1zM34 11h1v1h-1zM35 11h1v1h-1zM36 11h1v1h-1zM37 11h1v1h-1zM38 11h1v1h-1zM40 11h1v1h-1zM41 11h1v1h-1zM42 11h1v1h-1zM2 12h1v1h-1zM3 12h1v1h-1zM4 12h1v1h-1zM6 12h1v1h-1zM7 12h1v1h-1zM8 12h1v1h-1zM11 12h1v1h-1zM12 12h1v1h-1zM14 12h1v1h-1zM15 12h1v1h-1zM16 12h1v1h-1zM17 12h1v1h-1zM18 12h1v1h-1zM22 12h1v1h-1zM23 12h1v1h-1zM24 12h1v1h-1zM27 12h1v1h-1zM29 12h1v1h-1zM30 12h1v1h-1zM34 12h1v1h-1zM35 12h1v1h-1zM36 12h1v1h-1zM38 12h1v1h-1zM3 13h1v1h-1zM4 13h1v1h-1zM5 13h1v1h-1zM6 13h1v1h-1zM7 13h1v1h-1zM11 13h1v1h-1zM14 13h1v1h-1zM15 13h1v1h-1zM17 13h1v1h-1zM18 13h1v1h-1zM21 13h1v1h-1zM22 13h1v1h-1zM23 13h1v1h-1zM24 13h1v1h-1zM25 13h1v1h-1zM28 13h1v1h-1zM29 13h1v1h-1zM30 13h1v1h-1zM33 13h1v1h-1zM34 13h1v1h-1zM36 13h1v1h-1zM37 13h1v1h-1zM38 13h1v1h-1zM39 13h1v1h-1zM42 13h1v1h-1zM2 14h1v1h-1zM7 14h1v1h-1zM8 14h1v1h-1zM10 14h1v1h-1zM11 14h1v1h-1zM12 14h1v1h-1zM19 14h1v1h-1zM21 14h1v1h-1zM22 14h1v1h-1zM24 14h1v1h-1zM26 14h1v1h-1zM27 14h1v1h-1zM28 14h1v1h-1zM29 14h1v1h-1zM30 14h1v1h-1zM31 14h1v1h-1zM33 14h1v1h-1zM35 14h1v1h-1zM39 14h1v1h-1zM40 14h1v1h-1zM42 14h1v1h-1zM6 15h1v1h-1zM7 15h1v1h-1zM9 15h1v1h-1zM14 15h1v1h-1zM15 15h1v1h-1zM17 15h1v1h-1zM19 15h1v1h-1zM23 15h1v1h-1zM27 15h1v1h-1zM28 15h1v1h-1zM29 15h1v1h-1zM34 15h1v1h-1zM35 15h1v1h-1zM38 15h1v1h-1zM39 15h1v1h-1zM40 15h1v1h-1zM41 15h1v1h-1zM5 16h1v1h-1zM7 16h1v1h-1zM8 16h1v1h-1zM9 16h1v1h-1zM12 16h1v1h-1zM13 16h1v1h-1zM14 16h1v1h-1zM16 16h1v1h-1zM20 16h1v1h-1zM22 16h1v1h-1zM25 16h1v1h-1zM26 16h1v1h-1zM29 16h1v1h-1zM30 16h1v1h-1zM32 16h1v1h-1zM33 16h1v1h-1zM35 16h1v1h-1zM38 16h1v1h-1zM2 17h1v1h-1zM5 17h1v1h-1zM6 17h1v1h-1zM9 17h1v1h-1zM10 17h1v1h-1zM11 17h1v1h-1zM13 17h1v1h-1zM15 17h1v1h-1zM18 17h1v1h-1zM23 17h1v1h-1zM24 17h1v1h-1zM25 17h1v1h-1zM28 17h1v1h-1zM29 17h1v1h-1zM32 17h1v1h-1zM33 17h1v1h-1zM34 17h1v1h-1zM36 17h1v1h-1zM37 17h1v1h-1zM38 17h1v1h-1zM39 17h1v1h-1zM42 17h1v1h-1zM3 18h1v1h-1zM5 18h1v1h-1zM8 18h1v1h-1zM9 18h1v1h-1zM12 18h1v1h-1zM14 18h1v1h-1zM15 18h1v1h-1zM16 18h1v1h-1zM18 18h1v1h-1zM19 18h1v1h-1zM22 18h1v1h-1zM24 18h1v1h-1zM25 18h1v1h-1zM27 18h1v1h-1zM28 18h1v1h-1zM29 18h1v1h-1zM30 18h1v1h-1zM31 18h1v1h-1zM33 18h1v1h-1zM34 18h1v1h-1zM35 18h1v1h-1zM37 18h1v1h-1zM40 18h1v1h-1zM41 18h1v1h-1zM3 19h1v1h-1zM4 19h1v1h-1zM6 19h1v1h-1zM9 19h1v1h-1zM11 19h1v1h-1zM13 19h1v1h-1zM16 19h1v1h-1zM17 19h1v1h-1zM21 19h1v1h-1zM22 19h1v1h-1zM24 19h1v1h-1zM25 19h1v1h-1zM30 19h1v1h-1zM31 19h1v1h-1zM34 19h1v1h-1zM36 19h1v1h-1zM37 19h1v1h-1zM38 19h1v1h-1zM39 19h1v1h-1zM41 19h1v1h-1zM42 19h1v1h-1zM2 20h1v1h-1zM5 20h1v1h-1zM8 20h1v1h-1zM9 20h1v1h-1zM13 20h1v1h-1zM14 20h1v1h-1zM17 20h1v1h-1zM18 20h1v1h-1zM20 20h1v1h-1zM24 20h1v1h-1zM29 20h1v1h-1zM30 20h1v1h-1zM31 20h1v1h-1zM34 20h1v1h-1zM36 20h1v1h-1zM38 20h1v1h-1zM2 21h1v1h-1zM7 21h1v1h-1zM9 21h1v1h-1zM10 21h1v1h-1zM12 21h1v1h-1zM15 21h1v1h-1zM16 21h1v1h-1zM18 21h1v1h-1zM22 21h1v1h-1zM25 21h1v1h-1zM28 21h1v1h-1zM30 21h1v1h-1zM31 21h1v1h-1zM32 21h1v1h-1zM36 21h1v1h-1zM38 21h1v1h-1zM39 21h1v1h-1zM2 22h1v1h-1zM4 22h1v1h-1zM5 22h1v1h-1zM6 22h1v1h-1zM8 22h1v1h-1zM10 22h1v1h-1zM11 22h1v1h-1zM12 22h1v1h-1zM20 22h1v1h-1zM23 22h1v1h-1zM24 22h1v1h-1zM25 22h1v1h-1zM26 22h1v1h-1zM33 22h1v1h-1zM34 22h1v1h-1zM35 22h1v1h-1zM40 22h1v1h-1zM41 22h1v1h-1zM42 22h1v1h-1zM3 23h1v1h-1zM10 23h1v1h-1zM12 23h1v1h-1zM13 23h1v1h-1zM15 23h1v1h-1zM17 23h1v1h-1zM18 23h1v1h-1zM19 23h1v1h-1zM21 23h1v1h-1zM22 23h1v1h-1zM23 23h1v1h-1zM25 23h1v1h-1zM28 23h1v1h-1zM30 23h1v1h-1zM32 23h1v1h-1zM33 23h1v1h-1zM36 23h1v1h-1zM37 23h1v1h-1zM38 23h1v1h-1zM39 23h1v1h-1zM40 23h1v1h-1zM41 23h1v1h-1zM42 23h1v1h-1zM3 24h1v1h-1zM4 24h1v1h-1zM6 24h1v1h-1zM7 24h1v1h-1zM8 24h1v1h-1zM11 24h1v1h-1zM15 24h1v1h-1zM16 24h1v1h-1zM19 24h1v1h-1zM23 24h1v1h-1zM24 24h1v1h-1zM26 24h1v1h-1zM27 24h1v1h-1zM28 24h1v1h-1zM29 24h1v1h-1zM31 24h1v1h-1zM32 24h1v1h-1zM35 24h1v1h-1zM36 24h1v1h-1zM3 25h1v1h-1zM4 25h1v1h-1zM5 25h1v1h-1zM7 25h1v1h-1zM12 25h1v1h-1zM15 25h1v1h-1zM17 25h1v1h-1zM18 25h1v1h-1zM23 25h1v1h-1zM24 25h1v1h-1zM26 25h1v1h-1zM28 25h1v1h-1zM29 25h1v1h-1zM30 25h1v1h-1zM32 25h1v1h-1zM37 25h1v1h-1zM39 25h1v1h-1zM2 26h1v1h-1zM4 26h1v1h-1zM6 26h1v1h-1zM8 26h1v1h-1zM9 26h1v1h-1zM11 26h1v1h-1zM12 26h1v1h-1zM17 26h1v1h-1zM19 26h1v1h-1zM25 26h1v1h-1zM26 26h1v1h-1zM27 26h1v1h-1zM28 26h1v1h-1zM29 26h1v1h-1zM31 26h1v1h-1zM33 26h1v1h-1zM40 26h1v1h-1zM2 27h1v1h-1zM6 27h1v1h-1zM10 27h1v1h-1zM11 27h1v1h-1zM12 27h1v1h-1zM15 27h1v1h-1zM16 27h1v1h-1zM17 27h1v1h-1zM18 27h1v1h-1zM19 27h1v1h-1zM20 27h1v1h-1zM21 27h1v1h-1zM22 27h1v1h-1zM25 27h1v1h-1zM30 27h1v1h-1zM31 27h1v1h-1zM32 27h1v1h-1zM33 27h1v1h-1zM36 27h1v1h-1zM37 27h1v1h-1zM38 27h1v1h-1zM39 27h1v1h-1zM3 28h1v1h-1zM4 28h1v1h-1zM5 28h1v1h-1zM8 28h1v1h-1zM10 28h1v1h-1zM11 28h1v1h-1zM14 28h1v1h-1zM15 28h1v1h-1zM17 28h1v1h-1zM18 28h1v1h-1zM20 28h1v1h-1zM22 28h1v1h-1zM27 28h1v1h-1zM28 28h1v1h-1zM29 28h1v1h-1zM32 28h1v1h-1zM34 28h1v1h-1zM36 28h1v1h-1zM3 29h1v1h-1zM4 29h1v1h-1zM6 29h1v1h-1zM7 29h1v1h-1zM10 29h1v1h-1zM15 29h1v1h-1zM18 29h1v1h-1zM21 29h1v1h-1zM23 29h1v1h-1zM25 29h1v1h-1zM30 29h1v1h-1zM33 29h1v1h-1zM34 29h1v1h-1zM35 29h1v1h-1zM36 29h1v1h-1zM37 29h1v1h-1zM38 29h1v1h-1zM39 29h1v1h-1zM2 30h1v1h-1zM5 30h1v1h-1zM7 30h1v1h-1zM8 30h1v1h-1zM11 30h1v1h-1zM12 30h1v1h-1zM13 30h1v1h-1zM17 30h1v1h-1zM23 30h1v1h-1zM24 30h1v1h-1zM25 30h1v1h-1zM28 30h1v1h-1zM29 30h1v1h-1zM31 30h1v1h-1zM33 30h1v1h-1zM34 30h1v1h-1zM36 30h1v1h-1zM39 30h1v1h-1zM40 30h1v1h-1zM2 31h1v1h-1zM4 31h1v1h-1zM5 31h1v1h-1zM7 31h1v1h-1zM10 31h1v1h-1zM13 31h1v1h-1zM14 31h1v1h-1zM15 31h1v1h-1zM16 31h1v1h-1zM18 31h1v1h-1zM22 31h1v1h-1zM23 31h1v1h-1zM24 31h1v1h-1zM26 31h1v1h-1zM29 31h1v1h-1zM30 31h1v1h-1zM32 31h1v1h-1zM35 31h1v1h-1zM37 31h1v1h-1zM38 31h1v1h-1zM39 31h1v1h-1zM41 31h1v1h-1zM42 31h1v1h-1zM2 32h1v1h-1zM4 32h1v1h-1zM5 32h1v1h-1zM8 32h1v1h-1zM9 32h1v1h-1zM15 32h1v1h-1zM16 32h1v1h-1zM18 32h1v1h-1zM19 32h1v1h-1zM21 32h1v1h-1zM23 32h1v1h-1zM28 32h1v1h-1zM31 32h1v1h-1zM34 32h1v1h-1zM35 32h1v1h-1zM36 32h1v1h-1zM37 32h1v1h-1zM39 32h1v1h-1zM2 33h1v1h-1zM4 33h1v1h-1zM5 33h1v1h-1zM7 33h1v1h-1zM9 33h1v1h-1zM10 33h1v1h-1zM11 33h1v1h-1zM12 33h1v1h-1zM17 33h1v1h-1zM20 33h1v1h-1zM21 33h1v1h-1zM22 33h1v1h-1zM23 33h1v1h-1zM26 33h1v1h-1zM28 33h1v1h-1zM30 33h1v1h-1zM32 33h1v1h-1zM35 33h1v1h-1zM36 33h1v1h-1zM37 33h1v1h-1zM41 33h1v1h-1zM42 33h1v1h-1zM2 34h1v1h-1zM4 34h1v1h-1zM7 34h1v1h-1zM8 34h1v1h-1zM9 34h1v1h-1zM11 34h1v1h-1zM12 34h1v1h-1zM13 34h1v1h-1zM14 34h1v1h-1zM15 34h1v1h-1zM19 34h1v1h-1zM21 34h1v1h-1zM27 34h1v1h-1zM28 34h1v1h-1zM31 34h1v1h-1zM34 34h1v1h-1zM35 34h1v1h-1zM36 34h1v1h-1zM37 34h1v1h-1zM38 34h1v1h-1zM40 34h1v1h-1zM10 35h1v1h-1zM12 35h1v1h-1zM13 35h1v1h-1zM15 35h1v1h-1zM16 35h1v1h-1zM18 35h1v1h-1zM19 35h1v1h-1zM20 35h1v1h-1zM21 35h1v1h-1zM22 35h1v1h-1zM23 35h1v1h-1zM24 35h1v1h-1zM25 35h1v1h-1zM26 35h1v1h-1zM27 35h1v1h-1zM28 35h1v1h-1zM34 35h1v1h-1zM38 35h1v1h-1zM41 35h1v1h-1zM42 35h1v1h-1zM2 36h1v1h-1zM3 36h1v1h-1zM4 36h1v1h-1zM5 36h1v1h-1zM6 36h1v1h-1zM7 36h1v1h-1zM8 36h1v1h-1zM18 36h1v1h-1zM19 36h1v1h-1zM22 36h1v1h-1zM23 36h1v1h-1zM27 36h1v1h-1zM28 36h1v1h-1zM29 36h1v1h-1zM30 36h1v1h-1zM32 36h1v1h-1zM34 36h1v1h-1zM36 36h1v1h-1zM38 36h1v1h-1zM40 36h1v1h-1zM2 37h1v1h-1zM8 37h1v1h-1zM10 37h1v1h-1zM11 37h1v1h-1zM14 37h1v1h-1zM16 37h1v1h-1zM18 37h1v1h-1zM19 37h1v1h-1zM20 37h1v1h-1zM22 37h1v1h-1zM23 37h1v1h-1zM24 37h1v1h-1zM25 37h1v1h-1zM27 37h1v1h-1zM30 37h1v1h-1zM33 37h1v1h-1zM34 37h1v1h-1zM38 37h1v1h-1zM39 37h1v1h-1zM41 37h1v1h-1zM42 37h1v1h-1zM2 38h1v1h-1zM4 38h1v1h-1zM5 38h1v1h-1zM6 38h1v1h-1zM8 38h1v1h-1zM10 38h1v1h-1zM11 38h1v1h-1zM12 38h1v1h-1zM13 38h1v1h-1zM15 38h1v1h-1zM18 38h1v1h-1zM21 38h1v1h-1zM22 38h1v1h-1zM23 38h1v1h-1zM26 38h1v1h-1zM28 38h1v1h-1zM29 38h1v1h-1zM30 38h1v1h-1zM32 38h1v1h-1zM34 38h1v1h-1zM35 38h1v1h-1zM36 38h1v1h-1zM37 38h1v1h-1zM38 38h1v1h-1zM40 38h1v1h-1zM2 39h1v1h-1zM4 39h1v1h-1zM5 39h1v1h-1zM6 39h1v1h-1zM8 39h1v1h-1zM10 39h1v1h-1zM12 39h1v1h-1zM13 39h1v1h-1zM17 39h1v1h-1zM20 39h1v1h-1zM22 39h1v1h-1zM24 39h1v1h-1zM27 39h1v1h-1zM29 39h1v1h-1zM30 39h1v1h-1zM31 39h1v1h-1zM33 39h1v1h-1zM34 39h1v1h-1zM35 39h1v1h-1zM37 39h1v1h-1zM40 39h1v1h-1zM2 40h1v1h-1zM4 40h1v1h-1zM5 40h1v1h-1zM6 40h1v1h-1zM8 40h1v1h-1zM10 40h1v1h-1zM12 40h1v1h-1zM13 40h1v1h-1zM14 40h1v1h-1zM15 40h1v1h-1zM17 40h1v1h-1zM18 40h1v1h-1zM19 40h1v1h-1zM22 40h1v1h-1zM24 40h1v1h-1zM27 40h1v1h-1zM28 40h1v1h-1zM29 40h1v1h-1zM30 40h1v1h-1zM32 40h1v1h-1zM33 40h1v1h-1zM35 40h1v1h-1zM36 40h1v1h-1zM37 40h1v1h-1zM38 40h1v1h-1zM39 40h1v1h-1zM2 41h1v1h-1zM8 41h1v1h-1zM14 41h1v1h-1zM19 41h1v1h-1zM20 41h1v1h-1zM22 41h1v1h-1zM23 41h1v1h-1zM25 41h1v1h-1zM26 41h1v1h-1zM28 41h1v1h-1zM30 41h1v1h-1zM34 41h1v1h-1zM35 41h1v1h-1zM38 41h1v1h-1zM39 41h1v1h-1zM41 41h1v1h-1zM2 42h1v1h-1zM3 42h1v1h-1zM4 42h1v1h-1zM5 42h1v1h-1zM6 42h1v1h-1zM7 42h1v1h-1zM8 42h1v1h-1zM10 42h1v1h-1zM11 42h1v1h-1zM13 42h1v1h-1zM14 42h1v1h-1zM18 42h1v1h-1zM19 42h1v1h-1zM20 42h1v1h-1zM24 42h1v1h-1zM25 42h1v1h-1zM26 42h1v1h-1zM27 42h1v1h-1zM28 42h1v1h-1zM29 42h1v1h-1zM30 42h1v1h-1zM31 42h1v1h-1zM33 42h1v1h-1zM37 42h1v1h-1zM38 42h1v1h-1zM40 42h1v1h-1z" fill="#0a0a0a"/></svg>